<svg xmlns="http://www.w3.org/2000/svg" viewBox="0 0 81 81"><defs><style>.cls-1{fill:#f9f6f1;stroke:#f9f6f1;}.cls-1,.cls-2{stroke-miterlimit:10;}.cls-2{fill:none;stroke:#231f20;stroke-width:2px;}</style></defs><g id="Layer_2" data-name="Layer 2"><g id="Speech_Bubble" data-name="Speech Bubble"><circle class="cls-1" cx="40.5" cy="40.5" r="40"/><path class="cls-2" d="M36.57,52.92c2-1.08,4,.17,6,.47,4,.59,8.36-2.56,10.61-5.93A13.85,13.85,0,0,0,54.63,35c-2.93-7.43-12.76-9.9-19.59-7.6-1.25.42-6.48,2.19-8.63,7.69-1.42,3.67-1.22,8.31.9,11.31,0,0,.25.36,4.23,4.35h0v1.3c0,1.74-2.42,3.79-2.07,4.36s2.93-.21,5.12-1.86C35.78,53.7,35.75,53.35,36.57,52.92Z"/></g></g></svg>