<svg xmlns="http://www.w3.org/2000/svg" viewBox="0 0 81 81"><defs><style>.cls-1{fill:#f9f6f1;stroke:#f9f6f1;}.cls-1,.cls-2{stroke-miterlimit:10;}.cls-2{fill:none;stroke:#231f20;stroke-width:2px;}</style></defs><g id="Layer_2" data-name="Layer 2"><g id="Heart"><circle class="cls-1" cx="40.5" cy="40.5" r="40"/><path class="cls-2" d="M40.72,33.57C39,29.89,35.87,27.69,32.78,28c-4.23.42-6.63,5.33-7.16,8.76-1,6.47,4.06,12,6,14.14A48.11,48.11,0,0,0,40.37,58h0a64.63,64.63,0,0,0,8.2-6.57c2.81-2.72,4.21-4.09,5.32-6.57.69-1.55,2.75-6.17.78-10.65-.19-.45-2.29-5-6.71-5.28A7.83,7.83,0,0,0,40.72,33.57Z"/></g></g></svg>