<?xml version="1.0"?>
<svg xmlns="http://www.w3.org/2000/svg" xmlns:xlink="http://www.w3.org/1999/xlink" xmlns:svgjs="http://svgjs.com/svgjs" version="1.1" width="512" height="512" x="0" y="0" viewBox="0 0 512.398 512.398" style="enable-background:new 0 0 512 512" xml:space="preserve" class=""><g><g xmlns="http://www.w3.org/2000/svg"><path d="m407.425 149.44c-25.304-86.226-105.123-149.373-199.425-149.373-161.222-2.098-263.619 183.897-175.666 318.786v81.813c-.221 9.985 10.353 17.597 19.744 14.23 0 0 63.177-21.064 63.177-21.064 11.008 5.497 22.503 9.983 34.308 13.436 36.074 76.067 147.175 138.253 254.931 85.416l55.828 18.612c9.414 3.361 19.959-4.245 19.744-14.23v-70.504c71.757-107.478 13.651-236.375-72.641-277.122zm-283.76 214.959c-1.723-.931-6.28-2.899-11.876-1.034l-49.455 16.489v-65.441c0-2.956-.873-5.845-2.51-8.306-19.38-29.143-29.624-63.114-29.624-98.24 8.912-235.512 346.69-235.52 355.6.002 1.626 132.61-146.354 220.869-262.135 156.53zm329.137 48.878c-1.78 2.528-2.736 5.545-2.736 8.637v54.339s-42.04-14.015-42.04-14.015c-3.896-1.299-8.158-.943-11.788.987-73.583 40.709-166.842 11.065-207.023-48.402 127.424 12.764 238.507-98.329 225.742-225.748 66.361 45.121 91.801 149.988 37.845 224.202z" fill="#58854a" data-original="#000000" class=""/><path d="m221.497 260.579c14.565 13.527 34.75-6.647 21.207-21.22-19.136-19.123-50.271-19.125-69.407.001-5.859 5.856-5.862 15.354-.006 21.213 5.856 5.861 15.354 5.862 21.213.006 7.441-7.438 19.551-7.437 26.993 0z" fill="#58854a" data-original="#000000" class=""/><path d="m272.266 189.761c8.284 0 15-6.716 15-15v-16.067c-.733-19.872-29.266-19.874-30 0v16.067c0 8.285 6.716 15 15 15z" fill="#58854a" data-original="#000000" class=""/><path d="m143.733 143.694c-8.284 0-15 6.716-15 15v16.067c.733 19.872 29.266 19.874 30 0v-16.067c0-8.284-6.716-15-15-15z" fill="#58854a" data-original="#000000" class=""/></g></g></svg>
