<svg xmlns="http://www.w3.org/2000/svg" viewBox="0 0 540.33 308"><defs><style>.cls-1,.cls-2{fill:none;}.cls-1{stroke:#000;stroke-width:10px;}.cls-1,.cls-2,.cls-4{stroke-miterlimit:10;}.cls-2{stroke:#4a5746;stroke-width:6px;}.cls-3{font-size:80px;fill:#4a5746;}.cls-3,.cls-4{font-family:Verdana;}.cls-4{font-size:20.78px;fill:#999;stroke:#999;}.cls-5{letter-spacing:-0.01em;}.cls-6{letter-spacing:-0.14em;}</style></defs><g id="Layer_2" data-name="Layer 2"><g id="Layer_1-2" data-name="Layer 1"><ellipse class="cls-1" cx="356.83" cy="98.25" rx="93.5" ry="93.25"/><path class="cls-1" d="M423.69,157l74.43,65.65s61.93,49.34,26,72.42-49.32-11.54-49.32-11.54L414.43,165.68"/><path class="cls-2" d="M292.33,86c6.59-15.19,20.77-22.9,33-19.38s17.4,17,18,18.69"/><path class="cls-2" d="M306.21,146c13.07-18.78,41.19-28.32,65.36-24s34.5,21,35.76,23.09"/><text class="cls-3" transform="translate(0 269.01)">No match!</text><text class="cls-4" transform="translate(7.51 296.7) scale(1.04 1)">Please try another <tspan class="cls-5" x="198.43" y="0">k</tspan><tspan x="210.53" y="0">eyword or filte</tspan><tspan class="cls-6" x="362.03" y="0">r</tspan><tspan x="367.96" y="0">.</tspan></text><path class="cls-2" d="M370.86,86.76c6.59-15.19,20.77-22.9,33-19.37s17.4,17,18,18.68"/></g></g></svg>